<svg width="128" height="128" xmlns="http://www.w3.org/2000/svg">

 <g>
  <title>background</title>
  <rect fill="none" id="canvas_background" height="130" width="130" y="-1" x="-1"/>
 </g>
 <g>
  <title>Layer 1</title>
  <path stroke="null" id="svg_1" fill-rule="evenodd" clip-rule="evenodd" fill="#595959" d="m37.62596,65.205712c-0.114828,0 1.258852,2.901605 1.297128,2.901605c2.99828,5.340482 8.777944,8.660241 18.52767,9.581453c-1.390692,1.035833 -3.062073,3.001368 -3.293855,5.272559c-1.75006,1.110124 -5.269318,1.477335 -8.003919,0.630415c-3.833971,-1.186538 -5.301214,-8.630525 -11.040475,-7.569221c-1.241841,0.227119 -0.995174,1.031588 0.078678,1.71719c1.75006,1.110124 3.395924,2.500432 4.665409,5.457226c0.976036,2.271191 3.025924,6.327495 9.511565,6.327495c2.572992,0 4.376213,-0.303533 4.376213,-0.303533s0.048908,5.796843 0.048908,8.051053c0,2.600195 -3.576672,3.332495 -3.576672,4.582711c0,0.494568 1.184427,0.541265 2.134946,0.541265c1.879773,0 5.790296,-1.538891 5.790296,-4.240971c0,-2.145957 0.036149,-9.360702 0.036149,-10.625777c0,-2.759391 1.507646,-3.633905 1.507646,-3.633905s0.187127,14.730901 -0.359368,16.709172c-0.642185,2.322133 -1.801095,1.993129 -1.801095,3.028962c0,1.541014 4.707938,0.379947 6.268745,-3.005613c1.205691,-2.629912 0.678334,-17.086996 0.678334,-17.086996l1.286496,-0.025471c0,0 0.072299,6.61617 0.027644,9.640886c-0.044655,3.13297 -0.259426,7.093757 1.637359,8.961652c1.246094,1.22899 5.282076,3.383437 5.282076,1.413657c0,-1.144086 -2.211497,-2.084401 -2.211497,-5.181287l0,-14.253314c1.767071,0 1.501267,4.686719 1.501267,4.686719l0.129713,8.709061c0,0 -0.391265,3.171177 3.497993,4.497807c1.371554,0.473342 4.306041,0.600698 4.444259,-0.191035c0.138219,-0.791733 -3.534143,-1.96978 -3.568166,-4.423516c-0.021264,-1.500684 0.068046,-2.375199 0.068046,-8.887361c0,-6.512162 -0.890978,-8.9192 -3.997707,-10.838038c9.585991,-0.965787 15.520884,-3.292165 18.410716,-9.52202c0.225403,0.006368 1.180174,-2.910096 1.054714,-2.910096c0.648564,-2.35185 0.999427,-5.134589 1.067473,-8.428877c-0.017012,-8.936181 -4.376213,-12.096744 -5.211904,-13.580447c1.233335,-6.764752 -0.208391,-9.842534 -0.876093,-10.899593c-2.470923,-0.861779 -8.592943,2.218126 -11.939959,4.387431c-5.452192,-1.564362 -16.981748,-1.413657 -21.3048,0.403296c-7.976276,-5.601563 -12.197259,-4.744029 -12.197259,-4.744029s-2.728222,4.794972 -0.720863,11.812315c-2.624027,3.281552 -4.580351,5.603686 -4.580351,11.757127c0,3.468342 0.416782,6.571595 1.354542,9.280043zm26.489061,62.472605c-35.230855,0 -63.793194,-28.510873 -63.793194,-63.678246c0,-35.169495 28.562339,-63.678246 63.793194,-63.678246s63.793194,28.508751 63.793194,63.678246c0,35.167373 -28.562339,63.678246 -63.793194,63.678246z"/>
 </g>
</svg>