<svg width="128" height="128" xmlns="http://www.w3.org/2000/svg">

 <g>
  <title>background</title>
  <rect fill="none" id="canvas_background" height="130" width="130" y="-1" x="-1"/>
 </g>
 <g>
  <title>Layer 1</title>
  <circle fill="#595959" stroke="null" id="svg_2" r="12.550922" cy="65.182221" cx="64.000001"/>
  <path fill="#595959" stroke="null" id="svg_3" d="m78.616216,35.160636l-29.500619,0c-4.290999,0 -8.045623,1.35215 -10.45931,3.78602c-2.413687,2.43387 -3.754624,6.21989 -3.754624,10.54677l0,29.7473c0,4.32688 1.340937,8.1129 4.022812,10.8172c2.681874,2.43387 6.168311,3.78602 10.45931,3.78602l29.232431,0c4.290999,0 8.045623,-1.35215 10.45931,-3.78602c2.681874,-2.43387 4.022812,-6.21989 4.022812,-10.54677l0,-29.7473c0,-4.32688 -1.340937,-7.84247 -3.754624,-10.54677c-2.681874,-2.7043 -6.168311,-4.05645 -10.727498,-4.05645zm-14.750309,47.59568c-10.191123,0 -18.236746,-8.38333 -18.236746,-18.38924c0,-10.27634 8.313811,-18.38924 18.236746,-18.38924s18.504934,8.1129 18.504934,18.38924c0,10.27634 -8.313811,18.38924 -18.504934,18.38924zm19.041308,-33.26289c-2.413687,0 -4.290999,-1.89301 -4.290999,-4.32688s1.877312,-4.32688 4.290999,-4.32688s4.290999,1.89301 4.290999,4.32688s-1.877312,4.32688 -4.290999,4.32688z"/>
  <path fill="#595959" stroke="null" id="svg_4" d="m63.894952,0.246002c-35.222159,0 -63.71067,28.501949 -63.71067,63.740721c0,35.238773 28.488511,63.740721 63.71067,63.740721c35.222159,0 63.71067,-28.501949 63.71067,-63.740721c0.258986,-35.238773 -28.488511,-63.740721 -63.71067,-63.740721zm33.927227,78.769022c0,5.959498 -2.071892,11.141671 -5.697702,14.769192c-3.62581,3.627521 -8.80554,5.441281 -14.503242,5.441281l-28.229524,0c-5.697702,0 -10.877431,-1.81376 -14.503242,-5.441281c-3.884797,-3.627521 -5.697702,-8.809693 -5.697702,-14.769192l0,-28.501949c0,-11.918997 8.02858,-20.210473 20.200944,-20.210473l28.488511,0c5.956689,0 10.877431,2.072869 14.503242,5.70039c3.62581,3.627521 5.438716,8.550585 5.438716,14.510083l0,28.501949z"/>
 </g>
</svg>