         <svg className="Icon" width="128" height="128" xmlns="http://www.w3.org/2000/svg">
                <g>
                    <title>background</title>
                    <rect fill="none" id="canvas_background" height="402" width="582" y="-1" x="-1"/>
                </g>
                <g>
                    <title>Layer 1</title>
                    <circle id="svg_2" r="64" fillRule="evenodd" fill="#595959" clipRule="evenodd" cy="64" cx="64"/>
                    <path id="svg_4" fillRule="evenodd" fill="none" d="m105,40.189c-2.943,1.306 -6.105,2.188 -9.428,2.584c3.39,-2.031 5.99,-5.248 7.217,-9.08c-3.171,1.881 -6.684,3.247 -10.422,3.983c-2.994,-3.19 -7.26,-5.184 -11.979,-5.184c-9.065,0 -16.414,7.349 -16.414,16.412c0,1.287 0.146,2.539 0.426,3.741c-13.642,-0.685 -25.735,-7.219 -33.83,-17.148c-1.413,2.423 -2.223,5.243 -2.223,8.251c0,5.694 2.898,10.718 7.302,13.661c-2.69,-0.085 -5.222,-0.824 -7.434,-2.054c-0.002,0.069 -0.002,0.138 -0.002,0.207c0,7.954 5.657,14.584 13.166,16.093c-1.378,0.375 -2.827,0.575 -4.324,0.575c-1.058,0 -2.086,-0.103 -3.088,-0.295c2.089,6.521 8.15,11.268 15.332,11.399c-5.617,4.401 -12.694,7.024 -20.384,7.024c-1.325,0 -2.632,-0.076 -3.915,-0.229c7.263,4.657 15.892,7.374 25.16,7.374c30.188,0 46.697,-25.01 46.697,-46.698c0,-0.711 -0.018,-1.42 -0.049,-2.123c3.21,-2.311 5.991,-5.202 8.192,-8.493" clipRule="evenodd"/>
                </g>
            </svg>