<svg width="128" height="128" xmlns="http://www.w3.org/2000/svg">

 <g>
  <title>background</title>
  <rect fill="none" id="canvas_background" height="402" width="582" y="-1" x="-1"/>
 </g>
 <g>
  <title>Layer 1</title>
  <circle id="svg_2" r="64" fill="#303030" cy="64" cx="64"/>
  <path id="svg_5" fill="#FFFFFF" d="m82.333,104l-36.666,0c-11.947,0 -21.667,-9.719 -21.667,-21.667l0,-36.666c0,-11.948 9.72,-21.667 21.667,-21.667l36.666,0c11.948,0 21.667,9.719 21.667,21.667l0,36.667c0,11.947 -9.719,21.666 -21.667,21.666zm-36.666,-73.333c-8.271,0 -15,6.729 -15,15l0,36.667c0,8.271 6.729,15 15,15l36.666,0c8.271,0 15,-6.729 15,-15l0,-36.667c0,-8.271 -6.729,-15 -15,-15l-36.666,0z"/>
  <path id="svg_7" fill="#FFFFFF" d="m64,84c-11.028,0 -20,-8.973 -20,-20c0,-11.029 8.972,-20 20,-20s20,8.971 20,20c0,11.027 -8.972,20 -20,20zm0,-33.333c-7.352,0 -13.333,5.981 -13.333,13.333c0,7.353 5.981,13.333 13.333,13.333s13.333,-5.98 13.333,-13.333c0,-7.352 -5.98,-13.333 -13.333,-13.333z"/>
  <circle id="svg_9" r="4.583" fill="#FFFFFF" cy="42.75" cx="85.25"/>
 </g>
</svg>