<svg width="128" height="128" xmlns="http://www.w3.org/2000/svg">

 <g>
  <title>background</title>
  <rect fill="none" id="canvas_background" height="130" width="130" y="-1" x="-1"/>
 </g>
 <g>
  <title>Layer 1</title>
  <path stroke="null" fill="#595959" id="svg_1" d="m63.950581,0.39509c-35.141268,0 -63.62895,28.543623 -63.62895,63.742333c0,35.203888 28.487682,63.737156 63.62895,63.737156c35.141268,0 63.623782,-28.533269 63.623782,-63.737156c0,-35.19871 -28.485098,-63.742333 -63.623782,-63.742333zm32.050903,50.890326c0.033591,0.688547 0.046511,1.379682 0.046511,2.078582c0,21.228462 -16.128808,45.702929 -45.621634,45.702929c-9.054044,0 -17.485365,-2.658411 -24.5808,-7.214208c1.255784,0.147546 2.529655,0.222613 3.824197,0.222613c7.51403,0 14.428591,-2.567813 19.914246,-6.875112c-7.015334,-0.132015 -12.935087,-4.77841 -14.976382,-11.159115c0.976721,0.191551 1.981864,0.287326 3.015431,0.287326c1.462497,0 2.878483,-0.191551 4.224704,-0.561709c-7.338324,-1.475457 -12.865322,-7.972645 -12.865322,-15.748563c0,-0.06989 0,-0.137192 0.002584,-0.207082c2.160154,1.203662 4.632963,1.92586 7.26339,2.011281c-4.304805,-2.886201 -7.134194,-7.796626 -7.134194,-13.3723c0,-2.943149 0.790679,-5.705101 2.17049,-8.076186c7.909369,9.717308 19.725621,16.113544 33.053463,16.781383c-0.273895,-1.1726 -0.416011,-2.402148 -0.416011,-3.660169c0,-8.868273 7.178121,-16.061774 16.035787,-16.061774c4.612291,0 8.777565,1.951745 11.702559,5.070913c3.653658,-0.71702 7.0851,-2.057874 10.183216,-3.898313c-1.201521,3.753356 -3.741511,6.900997 -7.054093,8.886393c3.247983,-0.388278 6.338348,-1.252844 9.211663,-2.528985c-2.144651,3.227886 -4.865515,6.057139 -7.999806,8.322095z"/>
 </g>
</svg>